<svg width="158" height="20" viewBox="0 0 158 20" fill="none" xmlns="http://www.w3.org/2000/svg">
<path d="M109.183 15.1859V16.3224H122.96V15.1859H109.183ZM115.323 11.3318V15.6965H116.719V11.3318H115.323ZM110.378 4.69412V5.81412H121.665V4.69412H110.378ZM110.411 10.6894V11.7929H121.648V10.6894H110.411ZM112.749 5.6V10.8871H114.146V5.6H112.749ZM117.93 5.6V10.8871H119.31V5.6H117.93ZM130.242 4.29883V5.4353C130.242 7.97177 127.383 10.2447 124.708 10.7388L125.331 11.8753C128.375 11.2 131.454 8.68 131.454 5.4353V4.29883H130.242ZM130.495 4.29883V5.4353C130.495 8.69648 133.59 11.2 136.618 11.8753L137.24 10.7388C134.582 10.2447 131.706 7.98824 131.706 5.4353V4.29883H130.495ZM124.153 15.0377V16.1577H137.93V15.0377H124.153ZM140.889 11.2988V12.4024H151.335V11.2988H140.889ZM139.123 15.12V16.2565H152.899V15.12H139.123ZM140.889 4.54589V11.6447H142.302V5.66589H151.167V4.54589H140.889ZM141.848 7.87295V8.96H150.847V7.87295H141.848Z" fill="#212631"/>
<path d="M7.29634 5.73624H14.5927V3H7.29634C3.26685 3 0 6.26685 0 10.2963C0 14.3258 3.26685 17.5927 7.29634 17.5927C10.8224 17.5927 13.7644 15.092 14.4447 11.7665C14.4517 11.7323 14.4578 11.6982 14.464 11.664C14.5471 11.2227 14.5927 10.7595 14.5927 10.2963V8.92866H7.29634V11.6649H11.648C11.0666 13.515 9.3391 14.8573 7.29634 14.8573C4.77812 14.8573 2.73624 12.8154 2.73624 10.2972C2.73624 7.779 4.77812 5.73711 7.29634 5.73711V5.73624Z" fill="#212631"/>
<path d="M23.7146 5.75112L27.8072 5.73273V3L23.7146 3.01839C19.6895 3.01839 16.4271 6.28086 16.4271 10.306C16.4271 14.3311 19.6895 17.5936 23.7146 17.5936H27.8072V14.8608H23.7146C21.1991 14.8608 19.1598 12.8216 19.1598 10.306C19.1598 7.79038 21.1991 5.75112 23.7146 5.75112Z" fill="#212631"/>
<path d="M36.9387 3C32.9092 3 29.6424 6.26685 29.6424 10.2963C29.6424 14.3258 32.9092 17.5927 36.9387 17.5927C40.9682 17.5927 44.2351 14.3258 44.2351 10.2963C44.2351 6.26685 40.9682 3 36.9387 3ZM36.9387 14.8573C34.4205 14.8573 32.3786 12.8154 32.3786 10.2972C32.3786 7.779 34.4205 5.73711 36.9387 5.73711C39.4569 5.73711 41.4988 7.779 41.4988 10.2972C41.4988 12.8154 39.4569 14.8573 36.9387 14.8573Z" fill="#212631"/>
<path d="M53.3561 3C49.3267 3 46.0598 6.26685 46.0598 10.2963C46.0598 14.3258 49.3267 17.5927 53.3561 17.5927C57.3856 17.5927 60.6525 14.3258 60.6525 10.2963C60.6525 6.26685 57.3856 3 53.3561 3ZM53.3561 14.8573C50.8379 14.8573 48.796 12.8154 48.796 10.2972C48.796 7.779 50.8379 5.73711 53.3561 5.73711C55.8744 5.73711 57.9162 7.779 57.9162 10.2972C57.9162 12.8154 55.8744 14.8573 53.3561 14.8573Z" fill="#212631"/>
<path d="M76.6146 3.00262V5.73798V8.92955V11.6658V14.8573V17.5927H79.3499H87.5595V14.8573H79.3499V11.6658H86.6471V8.92955H79.3499V5.73798H87.5595V3.00262H79.3499H76.6146Z" fill="#212631"/>
<path d="M67.0198 3.00262H62.0211V5.73798H67.0198V17.5927H69.7561V5.73798H74.7899V3.00262H69.7561H67.0198Z" fill="#212631"/>
<path d="M98.4537 12.3601C99.4124 11.8925 100.196 11.1229 100.683 10.1764C101.03 9.5013 101.228 8.73603 101.228 7.92521C101.228 7.11441 101.043 6.39729 100.716 5.73885C99.9518 4.19692 98.4055 3.11206 96.5956 3.00349C96.4958 2.99736 89.8387 3.00349 89.8387 3.00349V17.5927H92.574V12.9117H95.5765L98.5027 17.5927H101.696L98.4537 12.3601ZM96.2953 10.1764H92.5749V5.73797H96.2953C96.3706 5.73797 96.4451 5.74147 96.5186 5.74935C97.6394 5.86143 98.5141 6.80707 98.5141 7.95673C98.5141 9.18258 97.5203 10.1755 96.2953 10.1755V10.1764Z" fill="#212631"/>
</svg>
